<mxfile host="app.diagrams.net" modified="2021-05-17T15:25:45.832Z" agent="5.0 (X11; Linux x86_64) AppleWebKit/537.36 (KHTML, like Gecko) Chrome/73.0.3683.86 Safari/537.36" etag="h0EpEHuQEQrIJo0O1X83" version="14.6.13" type="github">
  <diagram id="kkKos9nISYE2yEsiCCxR" name="Page-1">
    <mxGraphModel dx="1422" dy="755" grid="1" gridSize="10" guides="1" tooltips="1" connect="1" arrows="1" fold="1" page="1" pageScale="1" pageWidth="827" pageHeight="1169" math="0" shadow="0">
      <root>
        <mxCell id="0" />
        <mxCell id="1" parent="0" />
        <mxCell id="56GbnK_W7msUl-9ypa2e-16" value="mms_template" style="shape=table;startSize=30;container=1;collapsible=1;childLayout=tableLayout;fixedRows=1;rowLines=0;fontStyle=1;align=center;resizeLast=1;" vertex="1" parent="1">
          <mxGeometry x="700" y="210" width="180" height="160" as="geometry" />
        </mxCell>
        <mxCell id="56GbnK_W7msUl-9ypa2e-17" value="" style="shape=partialRectangle;collapsible=0;dropTarget=0;pointerEvents=0;fillColor=none;top=0;left=0;bottom=1;right=0;points=[[0,0.5],[1,0.5]];portConstraint=eastwest;" vertex="1" parent="56GbnK_W7msUl-9ypa2e-16">
          <mxGeometry y="30" width="180" height="30" as="geometry" />
        </mxCell>
        <mxCell id="56GbnK_W7msUl-9ypa2e-18" value="PK" style="shape=partialRectangle;connectable=0;fillColor=none;top=0;left=0;bottom=0;right=0;fontStyle=1;overflow=hidden;" vertex="1" parent="56GbnK_W7msUl-9ypa2e-17">
          <mxGeometry width="30" height="30" as="geometry" />
        </mxCell>
        <mxCell id="56GbnK_W7msUl-9ypa2e-19" value="ID" style="shape=partialRectangle;connectable=0;fillColor=none;top=0;left=0;bottom=0;right=0;align=left;spacingLeft=6;fontStyle=5;overflow=hidden;" vertex="1" parent="56GbnK_W7msUl-9ypa2e-17">
          <mxGeometry x="30" width="150" height="30" as="geometry" />
        </mxCell>
        <mxCell id="56GbnK_W7msUl-9ypa2e-20" value="" style="shape=partialRectangle;collapsible=0;dropTarget=0;pointerEvents=0;fillColor=none;top=0;left=0;bottom=0;right=0;points=[[0,0.5],[1,0.5]];portConstraint=eastwest;" vertex="1" parent="56GbnK_W7msUl-9ypa2e-16">
          <mxGeometry y="60" width="180" height="30" as="geometry" />
        </mxCell>
        <mxCell id="56GbnK_W7msUl-9ypa2e-21" value="" style="shape=partialRectangle;connectable=0;fillColor=none;top=0;left=0;bottom=0;right=0;editable=1;overflow=hidden;" vertex="1" parent="56GbnK_W7msUl-9ypa2e-20">
          <mxGeometry width="30" height="30" as="geometry" />
        </mxCell>
        <mxCell id="56GbnK_W7msUl-9ypa2e-22" value="type_id" style="shape=partialRectangle;connectable=0;fillColor=none;top=0;left=0;bottom=0;right=0;align=left;spacingLeft=6;overflow=hidden;" vertex="1" parent="56GbnK_W7msUl-9ypa2e-20">
          <mxGeometry x="30" width="150" height="30" as="geometry" />
        </mxCell>
        <mxCell id="56GbnK_W7msUl-9ypa2e-23" value="" style="shape=partialRectangle;collapsible=0;dropTarget=0;pointerEvents=0;fillColor=none;top=0;left=0;bottom=0;right=0;points=[[0,0.5],[1,0.5]];portConstraint=eastwest;" vertex="1" parent="56GbnK_W7msUl-9ypa2e-16">
          <mxGeometry y="90" width="180" height="30" as="geometry" />
        </mxCell>
        <mxCell id="56GbnK_W7msUl-9ypa2e-24" value="" style="shape=partialRectangle;connectable=0;fillColor=none;top=0;left=0;bottom=0;right=0;editable=1;overflow=hidden;" vertex="1" parent="56GbnK_W7msUl-9ypa2e-23">
          <mxGeometry width="30" height="30" as="geometry" />
        </mxCell>
        <mxCell id="56GbnK_W7msUl-9ypa2e-25" value="action_id" style="shape=partialRectangle;connectable=0;fillColor=none;top=0;left=0;bottom=0;right=0;align=left;spacingLeft=6;overflow=hidden;" vertex="1" parent="56GbnK_W7msUl-9ypa2e-23">
          <mxGeometry x="30" width="150" height="30" as="geometry" />
        </mxCell>
        <mxCell id="56GbnK_W7msUl-9ypa2e-26" value="" style="shape=partialRectangle;collapsible=0;dropTarget=0;pointerEvents=0;fillColor=none;top=0;left=0;bottom=0;right=0;points=[[0,0.5],[1,0.5]];portConstraint=eastwest;" vertex="1" parent="56GbnK_W7msUl-9ypa2e-16">
          <mxGeometry y="120" width="180" height="30" as="geometry" />
        </mxCell>
        <mxCell id="56GbnK_W7msUl-9ypa2e-27" value="" style="shape=partialRectangle;connectable=0;fillColor=none;top=0;left=0;bottom=0;right=0;editable=1;overflow=hidden;" vertex="1" parent="56GbnK_W7msUl-9ypa2e-26">
          <mxGeometry width="30" height="30" as="geometry" />
        </mxCell>
        <mxCell id="56GbnK_W7msUl-9ypa2e-28" value="processing_param" style="shape=partialRectangle;connectable=0;fillColor=none;top=0;left=0;bottom=0;right=0;align=left;spacingLeft=6;overflow=hidden;" vertex="1" parent="56GbnK_W7msUl-9ypa2e-26">
          <mxGeometry x="30" width="150" height="30" as="geometry" />
        </mxCell>
        <mxCell id="56GbnK_W7msUl-9ypa2e-29" value="media_info" style="shape=table;startSize=30;container=1;collapsible=1;childLayout=tableLayout;fixedRows=1;rowLines=0;fontStyle=1;align=center;resizeLast=1;" vertex="1" parent="1">
          <mxGeometry x="80" y="210" width="170" height="230" as="geometry" />
        </mxCell>
        <mxCell id="56GbnK_W7msUl-9ypa2e-30" value="" style="shape=partialRectangle;collapsible=0;dropTarget=0;pointerEvents=0;fillColor=none;top=0;left=0;bottom=1;right=0;points=[[0,0.5],[1,0.5]];portConstraint=eastwest;" vertex="1" parent="56GbnK_W7msUl-9ypa2e-29">
          <mxGeometry y="30" width="170" height="30" as="geometry" />
        </mxCell>
        <mxCell id="56GbnK_W7msUl-9ypa2e-31" value="PK" style="shape=partialRectangle;connectable=0;fillColor=none;top=0;left=0;bottom=0;right=0;fontStyle=1;overflow=hidden;" vertex="1" parent="56GbnK_W7msUl-9ypa2e-30">
          <mxGeometry width="30" height="30" as="geometry" />
        </mxCell>
        <mxCell id="56GbnK_W7msUl-9ypa2e-32" value="id" style="shape=partialRectangle;connectable=0;fillColor=none;top=0;left=0;bottom=0;right=0;align=left;spacingLeft=6;fontStyle=5;overflow=hidden;" vertex="1" parent="56GbnK_W7msUl-9ypa2e-30">
          <mxGeometry x="30" width="140" height="30" as="geometry" />
        </mxCell>
        <mxCell id="56GbnK_W7msUl-9ypa2e-33" value="" style="shape=partialRectangle;collapsible=0;dropTarget=0;pointerEvents=0;fillColor=none;top=0;left=0;bottom=0;right=0;points=[[0,0.5],[1,0.5]];portConstraint=eastwest;" vertex="1" parent="56GbnK_W7msUl-9ypa2e-29">
          <mxGeometry y="60" width="170" height="30" as="geometry" />
        </mxCell>
        <mxCell id="56GbnK_W7msUl-9ypa2e-34" value="" style="shape=partialRectangle;connectable=0;fillColor=none;top=0;left=0;bottom=0;right=0;editable=1;overflow=hidden;" vertex="1" parent="56GbnK_W7msUl-9ypa2e-33">
          <mxGeometry width="30" height="30" as="geometry" />
        </mxCell>
        <mxCell id="56GbnK_W7msUl-9ypa2e-35" value="mid" style="shape=partialRectangle;connectable=0;fillColor=none;top=0;left=0;bottom=0;right=0;align=left;spacingLeft=6;overflow=hidden;" vertex="1" parent="56GbnK_W7msUl-9ypa2e-33">
          <mxGeometry x="30" width="140" height="30" as="geometry" />
        </mxCell>
        <mxCell id="56GbnK_W7msUl-9ypa2e-36" value="" style="shape=partialRectangle;collapsible=0;dropTarget=0;pointerEvents=0;fillColor=none;top=0;left=0;bottom=0;right=0;points=[[0,0.5],[1,0.5]];portConstraint=eastwest;" vertex="1" parent="56GbnK_W7msUl-9ypa2e-29">
          <mxGeometry y="90" width="170" height="30" as="geometry" />
        </mxCell>
        <mxCell id="56GbnK_W7msUl-9ypa2e-37" value="" style="shape=partialRectangle;connectable=0;fillColor=none;top=0;left=0;bottom=0;right=0;editable=1;overflow=hidden;" vertex="1" parent="56GbnK_W7msUl-9ypa2e-36">
          <mxGeometry width="30" height="30" as="geometry" />
        </mxCell>
        <mxCell id="56GbnK_W7msUl-9ypa2e-38" value="biz" style="shape=partialRectangle;connectable=0;fillColor=none;top=0;left=0;bottom=0;right=0;align=left;spacingLeft=6;overflow=hidden;" vertex="1" parent="56GbnK_W7msUl-9ypa2e-36">
          <mxGeometry x="30" width="140" height="30" as="geometry" />
        </mxCell>
        <mxCell id="56GbnK_W7msUl-9ypa2e-39" value="" style="shape=partialRectangle;collapsible=0;dropTarget=0;pointerEvents=0;fillColor=none;top=0;left=0;bottom=0;right=0;points=[[0,0.5],[1,0.5]];portConstraint=eastwest;" vertex="1" parent="56GbnK_W7msUl-9ypa2e-29">
          <mxGeometry y="120" width="170" height="30" as="geometry" />
        </mxCell>
        <mxCell id="56GbnK_W7msUl-9ypa2e-40" value="" style="shape=partialRectangle;connectable=0;fillColor=none;top=0;left=0;bottom=0;right=0;editable=1;overflow=hidden;" vertex="1" parent="56GbnK_W7msUl-9ypa2e-39">
          <mxGeometry width="30" height="30" as="geometry" />
        </mxCell>
        <mxCell id="56GbnK_W7msUl-9ypa2e-41" value="mstatus" style="shape=partialRectangle;connectable=0;fillColor=none;top=0;left=0;bottom=0;right=0;align=left;spacingLeft=6;overflow=hidden;" vertex="1" parent="56GbnK_W7msUl-9ypa2e-39">
          <mxGeometry x="30" width="140" height="30" as="geometry" />
        </mxCell>
        <mxCell id="56GbnK_W7msUl-9ypa2e-42" value="media_format_info" style="shape=table;startSize=30;container=1;collapsible=1;childLayout=tableLayout;fixedRows=1;rowLines=0;fontStyle=1;align=center;resizeLast=1;" vertex="1" parent="1">
          <mxGeometry x="370" y="210" width="190" height="320" as="geometry" />
        </mxCell>
        <mxCell id="56GbnK_W7msUl-9ypa2e-43" value="" style="shape=partialRectangle;collapsible=0;dropTarget=0;pointerEvents=0;fillColor=none;top=0;left=0;bottom=1;right=0;points=[[0,0.5],[1,0.5]];portConstraint=eastwest;" vertex="1" parent="56GbnK_W7msUl-9ypa2e-42">
          <mxGeometry y="30" width="190" height="30" as="geometry" />
        </mxCell>
        <mxCell id="56GbnK_W7msUl-9ypa2e-44" value="PK" style="shape=partialRectangle;connectable=0;fillColor=none;top=0;left=0;bottom=0;right=0;fontStyle=1;overflow=hidden;" vertex="1" parent="56GbnK_W7msUl-9ypa2e-43">
          <mxGeometry width="30" height="30" as="geometry" />
        </mxCell>
        <mxCell id="56GbnK_W7msUl-9ypa2e-45" value="ID" style="shape=partialRectangle;connectable=0;fillColor=none;top=0;left=0;bottom=0;right=0;align=left;spacingLeft=6;fontStyle=5;overflow=hidden;" vertex="1" parent="56GbnK_W7msUl-9ypa2e-43">
          <mxGeometry x="30" width="160" height="30" as="geometry" />
        </mxCell>
        <mxCell id="56GbnK_W7msUl-9ypa2e-46" value="" style="shape=partialRectangle;collapsible=0;dropTarget=0;pointerEvents=0;fillColor=none;top=0;left=0;bottom=0;right=0;points=[[0,0.5],[1,0.5]];portConstraint=eastwest;" vertex="1" parent="56GbnK_W7msUl-9ypa2e-42">
          <mxGeometry y="60" width="190" height="30" as="geometry" />
        </mxCell>
        <mxCell id="56GbnK_W7msUl-9ypa2e-47" value="" style="shape=partialRectangle;connectable=0;fillColor=none;top=0;left=0;bottom=0;right=0;editable=1;overflow=hidden;" vertex="1" parent="56GbnK_W7msUl-9ypa2e-46">
          <mxGeometry width="30" height="30" as="geometry" />
        </mxCell>
        <mxCell id="56GbnK_W7msUl-9ypa2e-48" value="mid" style="shape=partialRectangle;connectable=0;fillColor=none;top=0;left=0;bottom=0;right=0;align=left;spacingLeft=6;overflow=hidden;" vertex="1" parent="56GbnK_W7msUl-9ypa2e-46">
          <mxGeometry x="30" width="160" height="30" as="geometry" />
        </mxCell>
        <mxCell id="56GbnK_W7msUl-9ypa2e-49" value="" style="shape=partialRectangle;collapsible=0;dropTarget=0;pointerEvents=0;fillColor=none;top=0;left=0;bottom=0;right=0;points=[[0,0.5],[1,0.5]];portConstraint=eastwest;" vertex="1" parent="56GbnK_W7msUl-9ypa2e-42">
          <mxGeometry y="90" width="190" height="30" as="geometry" />
        </mxCell>
        <mxCell id="56GbnK_W7msUl-9ypa2e-50" value="" style="shape=partialRectangle;connectable=0;fillColor=none;top=0;left=0;bottom=0;right=0;editable=1;overflow=hidden;" vertex="1" parent="56GbnK_W7msUl-9ypa2e-49">
          <mxGeometry width="30" height="30" as="geometry" />
        </mxCell>
        <mxCell id="56GbnK_W7msUl-9ypa2e-51" value="format" style="shape=partialRectangle;connectable=0;fillColor=none;top=0;left=0;bottom=0;right=0;align=left;spacingLeft=6;overflow=hidden;" vertex="1" parent="56GbnK_W7msUl-9ypa2e-49">
          <mxGeometry x="30" width="160" height="30" as="geometry" />
        </mxCell>
        <mxCell id="56GbnK_W7msUl-9ypa2e-52" value="" style="shape=partialRectangle;collapsible=0;dropTarget=0;pointerEvents=0;fillColor=none;top=0;left=0;bottom=0;right=0;points=[[0,0.5],[1,0.5]];portConstraint=eastwest;" vertex="1" parent="56GbnK_W7msUl-9ypa2e-42">
          <mxGeometry y="120" width="190" height="30" as="geometry" />
        </mxCell>
        <mxCell id="56GbnK_W7msUl-9ypa2e-53" value="" style="shape=partialRectangle;connectable=0;fillColor=none;top=0;left=0;bottom=0;right=0;editable=1;overflow=hidden;" vertex="1" parent="56GbnK_W7msUl-9ypa2e-52">
          <mxGeometry width="30" height="30" as="geometry" />
        </mxCell>
        <mxCell id="56GbnK_W7msUl-9ypa2e-54" value="type_id" style="shape=partialRectangle;connectable=0;fillColor=none;top=0;left=0;bottom=0;right=0;align=left;spacingLeft=6;overflow=hidden;" vertex="1" parent="56GbnK_W7msUl-9ypa2e-52">
          <mxGeometry x="30" width="160" height="30" as="geometry" />
        </mxCell>
        <mxCell id="56GbnK_W7msUl-9ypa2e-62" value="" style="shape=partialRectangle;collapsible=0;dropTarget=0;pointerEvents=0;fillColor=none;top=0;left=0;bottom=0;right=0;points=[[0,0.5],[1,0.5]];portConstraint=eastwest;" vertex="1" parent="1">
          <mxGeometry x="80" y="370" width="190" height="30" as="geometry" />
        </mxCell>
        <mxCell id="56GbnK_W7msUl-9ypa2e-63" value="" style="shape=partialRectangle;connectable=0;fillColor=none;top=0;left=0;bottom=0;right=0;editable=1;overflow=hidden;" vertex="1" parent="56GbnK_W7msUl-9ypa2e-62">
          <mxGeometry width="30" height="30" as="geometry" />
        </mxCell>
        <mxCell id="56GbnK_W7msUl-9ypa2e-64" value="tag" style="shape=partialRectangle;connectable=0;fillColor=none;top=0;left=0;bottom=0;right=0;align=left;spacingLeft=6;overflow=hidden;" vertex="1" parent="56GbnK_W7msUl-9ypa2e-62">
          <mxGeometry x="30" width="160" height="30" as="geometry" />
        </mxCell>
        <mxCell id="56GbnK_W7msUl-9ypa2e-65" value="" style="shape=partialRectangle;collapsible=0;dropTarget=0;pointerEvents=0;fillColor=none;top=0;left=0;bottom=0;right=0;points=[[0,0.5],[1,0.5]];portConstraint=eastwest;" vertex="1" parent="1">
          <mxGeometry x="80" y="410" width="190" height="30" as="geometry" />
        </mxCell>
        <mxCell id="56GbnK_W7msUl-9ypa2e-66" value="" style="shape=partialRectangle;connectable=0;fillColor=none;top=0;left=0;bottom=0;right=0;editable=1;overflow=hidden;" vertex="1" parent="56GbnK_W7msUl-9ypa2e-65">
          <mxGeometry width="30" height="30" as="geometry" />
        </mxCell>
        <mxCell id="56GbnK_W7msUl-9ypa2e-67" value="name" style="shape=partialRectangle;connectable=0;fillColor=none;top=0;left=0;bottom=0;right=0;align=left;spacingLeft=6;overflow=hidden;" vertex="1" parent="56GbnK_W7msUl-9ypa2e-65">
          <mxGeometry x="30" width="160" height="30" as="geometry" />
        </mxCell>
        <mxCell id="56GbnK_W7msUl-9ypa2e-68" value="service_id" style="shape=partialRectangle;connectable=0;fillColor=none;top=0;left=0;bottom=0;right=0;align=left;spacingLeft=6;overflow=hidden;" vertex="1" parent="1">
          <mxGeometry x="400" y="370" width="160" height="30" as="geometry" />
        </mxCell>
        <mxCell id="56GbnK_W7msUl-9ypa2e-69" value="external_id" style="shape=partialRectangle;connectable=0;fillColor=none;top=0;left=0;bottom=0;right=0;align=left;spacingLeft=6;overflow=hidden;" vertex="1" parent="1">
          <mxGeometry x="400" y="410" width="160" height="30" as="geometry" />
        </mxCell>
        <mxCell id="56GbnK_W7msUl-9ypa2e-70" value="url" style="shape=partialRectangle;connectable=0;fillColor=none;top=0;left=0;bottom=0;right=0;align=left;spacingLeft=6;overflow=hidden;" vertex="1" parent="1">
          <mxGeometry x="400" y="450" width="160" height="30" as="geometry" />
        </mxCell>
        <mxCell id="56GbnK_W7msUl-9ypa2e-71" value="....." style="shape=partialRectangle;connectable=0;fillColor=none;top=0;left=0;bottom=0;right=0;align=left;spacingLeft=6;overflow=hidden;" vertex="1" parent="1">
          <mxGeometry x="400" y="490" width="160" height="30" as="geometry" />
        </mxCell>
        <mxCell id="56GbnK_W7msUl-9ypa2e-74" style="edgeStyle=orthogonalEdgeStyle;rounded=0;orthogonalLoop=1;jettySize=auto;html=1;entryX=0;entryY=0.5;entryDx=0;entryDy=0;endArrow=ERoneToMany;endFill=0;" edge="1" parent="1" source="56GbnK_W7msUl-9ypa2e-39" target="56GbnK_W7msUl-9ypa2e-52">
          <mxGeometry relative="1" as="geometry" />
        </mxCell>
        <mxCell id="56GbnK_W7msUl-9ypa2e-75" style="edgeStyle=orthogonalEdgeStyle;rounded=0;orthogonalLoop=1;jettySize=auto;html=1;endArrow=ERoneToMany;endFill=0;" edge="1" parent="1" source="56GbnK_W7msUl-9ypa2e-26" target="56GbnK_W7msUl-9ypa2e-52">
          <mxGeometry relative="1" as="geometry" />
        </mxCell>
      </root>
    </mxGraphModel>
  </diagram>
</mxfile>
